<svg width="637" height="328" viewBox="0 0 637 328" fill="none" xmlns="http://www.w3.org/2000/svg">
<g clip-path="url(#clip0)">
<path d="M31.9784 306.455L59.3487 263.02L31.9657 311.187L31.951 316.136C29.9983 316.114 28.0654 316.039 26.1522 315.912L28.3846 252.333L28.3553 251.842L28.4056 251.748L28.6181 245.74L0 198.135L28.6476 241.241L28.7334 242.514L30.4198 194.477L5.8173 145.223L30.612 186.037L31.7654 86.471L31.7707 86.1396L31.7746 86.4657L32.3362 164.966L55.8452 133.557L32.3154 171.728L32.2063 214.723L54.0193 173.198L32.1943 221.044L32.134 244.952L63.8192 187.134L32.109 253.292L31.9784 306.455Z" fill="#D0CDE1"/>
<path d="M416.155 123.117H408.46V177.751H416.155V123.117Z" fill="#3F3D56"/>
<path d="M131.422 6.84931L128.528 13.9792L413.277 129.554L416.17 122.425L131.422 6.84931Z" fill="#3F3D56"/>
<path d="M636.976 313.687C625.058 333.598 -0.628652 331.926 0.319436 313.685C12.2374 293.775 637.924 295.447 636.976 313.687Z" fill="#D0CDE1"/>
<path d="M558.509 233.154H491.564V259.316H558.509V233.154Z" fill="#3F3D56"/>
<path d="M552.353 256.238H222.245V285.479H552.353V256.238Z" fill="#3F3D56"/>
<path d="M498.105 270.858H418.848V171.21H478.098L498.105 221.468V270.858Z" fill="#D0CDE1"/>
<path d="M465.017 177.366H431.159V211.223H465.017V177.366Z" fill="white"/>
<path d="M490.409 211.608H468.864V177.751H478.098L490.409 211.608Z" fill="white"/>
<path d="M440.393 230.46H432.698V245.081H440.393V230.46Z" fill="#3F3D56"/>
<path d="M475.405 199.296H475.789C477.728 199.296 479.588 200.067 480.958 201.437C482.329 202.808 483.1 204.668 483.1 206.606C483.1 208.545 482.329 210.405 480.958 211.775C479.588 213.146 477.728 213.917 475.789 213.917H475.405V199.296Z" fill="#3F3D56"/>
<path d="M189.157 256.238H189.541C191.48 256.238 193.339 257.008 194.71 258.379C196.081 259.75 196.851 261.609 196.851 263.548C196.851 265.487 196.081 267.346 194.71 268.717C193.339 270.088 191.48 270.858 189.541 270.858H189.157V256.238Z" fill="#3F3D56"/>
<path d="M528.884 256.128C540.61 256.128 551.157 261.808 558.476 270.858H573.514L558.894 230.133L490.794 216.702L492.718 270.858H499.292C506.611 261.808 517.158 256.128 528.884 256.128Z" fill="#D0CDE1"/>
<path d="M529.653 313.949C548.14 313.949 563.126 298.963 563.126 280.477C563.126 261.991 548.14 247.004 529.653 247.004C511.167 247.004 496.181 261.991 496.181 280.477C496.181 298.963 511.167 313.949 529.653 313.949Z" fill="#3F3D56"/>
<path d="M529.653 298.094C539.383 298.094 547.271 290.207 547.271 280.477C547.271 270.747 539.383 262.86 529.653 262.86C519.924 262.86 512.036 270.747 512.036 280.477C512.036 290.207 519.924 298.094 529.653 298.094Z" fill="#D0CDE1"/>
<path d="M227.246 313.565C243.395 313.565 256.487 300.473 256.487 284.324C256.487 268.175 243.395 255.084 227.246 255.084C211.097 255.084 198.006 268.175 198.006 284.324C198.006 300.473 211.097 313.565 227.246 313.565Z" fill="#3F3D56"/>
<path d="M227.246 299.714C235.746 299.714 242.636 292.824 242.636 284.324C242.636 275.825 235.746 268.935 227.246 268.935C218.747 268.935 211.857 275.825 211.857 284.324C211.857 292.824 218.747 299.714 227.246 299.714Z" fill="#D0CDE1"/>
<path d="M421.156 157.359H404.997V273.936H421.156V157.359Z" fill="#3F3D56"/>
<path d="M421.156 252.775H188.772V259.701H421.156V252.775Z" fill="#3F3D56"/>
<path d="M317.841 209.243L64.4104 278.192L66.2284 284.874L319.659 215.926L317.841 209.243Z" fill="#3F3D56"/>
<path d="M300.543 217.644L296.202 220.833L322.863 257.112L327.203 253.922L300.543 217.644Z" fill="#3F3D56"/>
<path d="M480.022 213.147H472.327V216.225H480.022V213.147Z" fill="#3F3D56"/>
<path d="M412.307 236.232H311.505C311.32 236.232 311.141 236.165 311.001 236.044C310.861 235.923 310.77 235.756 310.743 235.573C310.717 235.39 310.757 235.203 310.857 235.047C310.956 234.892 311.109 234.777 311.286 234.725L409.78 205.484C409.89 205.451 410.006 205.444 410.119 205.462C410.232 205.48 410.34 205.523 410.434 205.587C410.529 205.652 410.608 205.738 410.665 205.837C410.722 205.936 410.757 206.047 410.766 206.161L413.074 235.402C413.083 235.507 413.069 235.614 413.034 235.714C412.999 235.814 412.944 235.906 412.872 235.984C412.8 236.062 412.713 236.124 412.615 236.167C412.518 236.21 412.413 236.232 412.307 236.232ZM316.8 234.693H411.474L409.306 207.23L316.8 234.693Z" fill="#3F3D56"/>
<path d="M139.34 202.374H139.333L117.243 202.166C117.135 202.165 117.029 202.141 116.931 202.097C116.833 202.052 116.745 201.987 116.674 201.906C116.602 201.825 116.548 201.73 116.516 201.628C116.484 201.525 116.473 201.416 116.486 201.309L127.963 101.162C127.985 100.975 128.075 100.801 128.216 100.676C128.357 100.55 128.539 100.48 128.728 100.48H128.731C128.921 100.481 129.103 100.552 129.244 100.679C129.384 100.806 129.473 100.981 129.493 101.169L140.106 201.524C140.117 201.631 140.105 201.74 140.072 201.842C140.039 201.945 139.984 202.039 139.912 202.12C139.84 202.2 139.752 202.264 139.653 202.308C139.555 202.352 139.448 202.374 139.34 202.374ZM118.112 200.635L138.484 200.827L128.697 108.276L118.112 200.635Z" fill="#3F3D56"/>
<path d="M563.924 244.401L563.564 244.537C561.751 245.223 559.739 245.16 557.972 244.363C556.205 243.566 554.827 242.099 554.141 240.286C553.455 238.472 553.518 236.461 554.315 234.694C555.112 232.926 556.579 231.548 558.392 230.862L558.752 230.726L563.924 244.401Z" fill="#3F3D56"/>
<path d="M95.8668 248.888L74.4022 254.896L75.3559 258.304L96.8205 252.296L95.8668 248.888Z" fill="#3F3D56"/>
<path d="M251.298 206.301L247.155 208.563L78.845 255.674L76.3461 252.57C72.0163 247.258 69.2486 240.846 68.3523 234.052C67.7167 228.979 68.1816 223.631 71.7207 220.377L65.293 168.535L158.377 142.355L202.527 161.352C202.527 161.352 219.439 156.299 231.884 165.215C235.823 168.04 239.317 172.265 241.679 178.499L243.714 184.378L251.298 206.301Z" fill="#E30613"/>
<path d="M214.092 237.379C226.012 237.379 235.674 227.716 235.674 215.797C235.674 203.877 226.012 194.215 214.092 194.215C202.173 194.215 192.51 203.877 192.51 215.797C192.51 227.716 202.173 237.379 214.092 237.379Z" fill="#3F3D56"/>
<path d="M214.092 227.156C220.366 227.156 225.451 222.07 225.451 215.797C225.451 209.523 220.366 204.438 214.092 204.438C207.819 204.438 202.734 209.523 202.734 215.797C202.734 222.07 207.819 227.156 214.092 227.156Z" fill="#D0CDE1"/>
<path d="M111.539 266.084C123.459 266.084 133.121 256.421 133.121 244.502C133.121 232.582 123.459 222.92 111.539 222.92C99.6201 222.92 89.9575 232.582 89.9575 244.502C89.9575 256.421 99.6201 266.084 111.539 266.084Z" fill="#3F3D56"/>
<path d="M111.539 255.861C117.813 255.861 122.898 250.775 122.898 244.502C122.898 238.228 117.813 233.143 111.539 233.143C105.266 233.143 100.18 238.228 100.18 244.502C100.18 250.775 105.266 255.861 111.539 255.861Z" fill="#D0CDE1"/>
<path d="M187.264 161.95L120.485 180.642L114.858 160.54L157.447 148.619L187.264 161.95Z" fill="white"/>
<path d="M106.682 162.829L80.1063 170.267L85.7329 190.369L112.308 182.931L106.682 162.829Z" fill="white"/>
<path d="M128.088 194.679L124.681 195.633L126.493 202.106L129.9 201.153L128.088 194.679Z" fill="#3F3D56"/>
<path d="M182.684 173.152L181.73 169.745L175.257 171.557L176.21 174.964L182.684 173.152Z" fill="#3F3D56"/>
<path d="M174.075 158.147L174.45 158.042C176.338 157.513 178.359 157.757 180.069 158.718C181.778 159.68 183.035 161.281 183.564 163.17C184.092 165.058 183.849 167.079 182.887 168.788C181.926 170.498 180.325 171.755 178.436 172.283L178.061 172.388L174.075 158.147Z" fill="#3F3D56"/>
<path d="M243.714 184.378C241.215 185.378 238.444 185.464 235.888 184.621C233.332 183.779 231.155 182.061 229.741 179.771C228.328 177.481 227.767 174.765 228.159 172.102C228.551 169.44 229.87 167.001 231.884 165.215C235.823 168.04 239.317 172.265 241.679 178.5L243.714 184.378Z" fill="#3F3D56"/>
<path d="M132.215 6.92536H124.52V119.27H132.215V6.92536Z" fill="#3F3D56"/>
<path d="M128.368 21.5456C134.317 21.5456 139.14 16.7224 139.14 10.7728C139.14 4.82314 134.317 0 128.368 0C122.418 0 117.595 4.82314 117.595 10.7728C117.595 16.7224 122.418 21.5456 128.368 21.5456Z" fill="#3F3D56"/>
<path d="M412.307 135.429C418.257 135.429 423.08 130.606 423.08 124.656C423.08 118.707 418.257 113.884 412.307 113.884C406.357 113.884 401.534 118.707 401.534 124.656C401.534 130.606 406.357 135.429 412.307 135.429Z" fill="#3F3D56"/>
</g>
<defs>
<clipPath id="clip0">
<rect width="636.977" height="328" fill="white"/>
</clipPath>
</defs>
</svg>
