<svg width="42" height="42" viewBox="0 0 42 42" fill="none" xmlns="http://www.w3.org/2000/svg">
<rect width="42" height="42" rx="12" fill="#FEC7C4"/>
<path d="M10.0037 11.3063C9.95015 15.0599 10.4783 18.715 11.5977 21.7891C13.3295 26.9954 17.6304 31.2911 20.5567 32.4392L21.9847 19.0062L20.5567 8L10.0037 11.3063Z" fill="#4BC0FF"/>
<path d="M20.5566 8V32.4392C23.5001 31.2825 27.7906 26.977 29.5156 21.789C30.635 18.7157 31.1635 15.059 31.1097 11.3063L20.5566 8Z" fill="#4B8DFF"/>
<path d="M12.9256 13.7665C12.6776 20.3503 16.4614 26.1061 20.5569 28.9168L21.8064 18.9049L20.5569 11.3755L12.9256 13.7665Z" fill="#FBF4F4"/>
<path d="M20.5566 11.3755V28.9168C24.6623 26.0972 28.4347 20.3439 28.1879 13.7664L20.5566 11.3755Z" fill="#E9E9EE"/>
<path d="M26.4518 17.3281C26.3304 17.6811 26.1287 18.0128 25.847 18.2945C25.5528 18.5887 25.2043 18.7954 24.8338 18.9146C24.2709 19.0958 23.757 19.4025 23.3391 19.8206L17.4282 25.7314C16.8349 25.3577 16.3074 24.8889 15.8677 24.3463L20.4744 19.7397C21.2518 18.9623 21.6542 17.8759 21.5324 16.7835C21.4439 15.9923 21.7271 15.1678 22.3816 14.5922C22.5225 14.4683 22.6742 14.3628 22.8338 14.2759C23.0879 14.1374 23.361 14.0455 23.6409 14L23.4759 14.5285L23.1674 15.5172C23.1327 15.6283 23.1164 15.7409 23.1164 15.8512C23.1164 16.3292 23.424 16.772 23.9041 16.9217C24.4954 17.1063 25.1243 16.7765 25.3086 16.1852L25.4011 15.8895L25.7876 14.6503C26.544 15.3605 26.7655 16.4159 26.4518 17.3281Z" fill="#CCCCCC"/>
<path d="M26.515 23.2115C25.9089 24.4065 24.9376 25.3851 23.7479 26C22.7505 24.609 22.4396 23.2024 23.0848 22.5573C23.7278 21.9143 25.1281 22.2214 26.515 23.2115Z" fill="#C30047"/>
<path d="M24.7923 25.3234C24.4685 25.5814 24.1188 25.8084 23.7479 26H23.7476C22.7505 24.609 22.4396 23.2024 23.0848 22.5573C22.8318 22.8104 23.5667 23.9714 24.7923 25.3234Z" fill="#D10F46"/>
<path d="M23.3214 21.9661L22.5849 22.7026L16.9321 17.0493L17.2511 16.7305L17.6687 16.3131L23.3214 21.9661Z" fill="#E6E6E6"/>
<path d="M16.9321 17.0495L17.251 16.7306L22.9039 22.3835L22.5851 22.7024L16.9321 17.0495Z" fill="#CCCCCC"/>
<path d="M24.4784 21.163C24.5813 21.2658 24.6328 21.4005 24.6328 21.5357C24.6328 21.6704 24.5813 21.8056 24.4784 21.9085L22.4352 23.9516C22.2292 24.1577 21.8955 24.1575 21.6897 23.9516C21.5867 23.8488 21.5354 23.7139 21.5352 23.5789C21.5352 23.4442 21.5865 23.3092 21.6897 23.2061L23.7329 21.163C23.9388 20.9569 24.2726 20.9571 24.4784 21.163Z" fill="#D10F46"/>
<path d="M24.4795 21.163C24.5825 21.2658 24.634 21.4005 24.634 21.5357C24.634 21.6704 24.5825 21.8056 24.4795 21.9085L23.2004 23.1877C22.9943 23.3938 22.6606 23.3935 22.4547 23.1877C22.3519 23.0848 22.3005 22.9499 22.3003 22.815C22.3003 22.6802 22.3517 22.5453 22.4547 22.4421L23.734 21.163C23.9399 20.9569 24.2738 20.9571 24.4795 21.163Z" fill="#C30047"/>
<path d="M18.077 17.459L18.2059 15.6644L15.9618 14.3819L15 15.3437L16.2825 17.5878L18.077 17.459Z" fill="#E6E6E6"/>
<path d="M24.3569 22.5445L26.4718 25.7552L27.1645 23.5887L26.4718 21.4708C25.7025 21.5189 24.9455 21.876 24.3569 22.5445Z" fill="#C30047"/>
<path d="M24.5587 27.119L21.8687 30.1742L24.3567 33L26.4716 30.5981L24.5587 27.119Z" fill="#C30047"/>
<path d="M28.9548 22.5502C28.2724 21.7751 27.3637 21.4151 26.4717 21.4709V25.7552L28.2966 28.5255L28.9548 27.7779C30.2259 26.3343 30.2259 23.9937 28.9548 22.5502Z" fill="#93293B"/>
<path d="M24.3568 22.5445C22.9826 24.1052 22.9826 26.6355 24.3568 28.1962L26.4716 30.5981L27.3895 28.189L26.4716 24.9465L24.3568 22.5445Z" fill="#FF6378"/>
<path d="M31.0747 30.1742L26.4717 24.9465V30.5981L28.5865 33L31.0747 30.1742Z" fill="#C30047"/>
</svg>
