<svg width="42" height="42" viewBox="0 0 42 42" fill="none" xmlns="http://www.w3.org/2000/svg">
<rect width="42" height="42" rx="12" fill="#FEC7C4"/>
<g clip-path="url(#clip0)">
<path d="M33.9492 20.9492C33.9492 23.0622 33.4452 25.0571 32.5511 26.821C31.701 28.4972 30.4981 29.9643 29.0399 31.1253C28.3799 31.6512 27.6672 32.1138 26.9113 32.5043H26.9107C25.1246 33.4277 23.0983 33.9492 20.9492 33.9492C18.406 33.9492 16.0336 33.219 14.0301 31.9568C12.8208 31.1953 11.7457 30.2398 10.8495 29.1339C9.03546 26.8996 7.94922 24.0506 7.94922 20.9492C7.94922 13.7694 13.7694 7.94922 20.9492 7.94922C22.3814 7.94922 23.7592 8.18051 25.0476 8.60878C25.4949 8.75676 25.9317 8.92934 26.3562 9.12354C27.8338 9.79996 29.1625 10.7456 30.2801 11.8975C31.1231 12.7661 31.846 13.7526 32.4216 14.8297C33.3964 16.6534 33.9492 18.7371 33.9492 20.9492Z" fill="#4BC0FF"/>
<path d="M32.4217 14.8297C32.1744 15.5491 31.7632 16.2252 31.1891 16.7992C30.5894 17.3989 29.8791 17.8202 29.1239 18.0632C27.9768 18.4326 26.9294 19.0576 26.0776 19.9098L14.0302 31.9568C12.821 31.1953 11.7458 30.2398 10.8496 29.1339L20.2388 19.7448C21.8233 18.1604 22.6436 15.9461 22.3952 13.7196C22.2149 12.1071 22.7921 10.4266 24.1261 9.25346C24.4132 9.00095 24.7224 8.78592 25.0477 8.60878C25.5657 8.32651 26.1223 8.13925 26.6928 8.04642L26.3563 9.12354L25.7275 11.1387C25.6569 11.3652 25.6236 11.5946 25.6236 11.8195C25.6236 12.7937 26.2506 13.6962 27.2291 14.0013C28.4342 14.3776 29.716 13.7054 30.0917 12.5003L30.2802 11.8975L31.0681 9.37189C32.6096 10.8194 33.0611 12.9704 32.4217 14.8297Z" fill="#CCCCCC"/>
<path d="M32.5512 26.821C31.3158 29.2565 29.3362 31.2511 26.9113 32.5043C24.8785 29.6693 24.2449 26.8023 25.5599 25.4876C26.8705 24.177 29.7246 24.803 32.5512 26.821Z" fill="#C30047"/>
<path d="M29.04 31.1253C28.3801 31.6512 27.6673 32.1137 26.9114 32.5043H26.9108C24.8785 29.6693 24.245 26.8023 25.5599 25.4876C25.0442 26.0033 26.542 28.3698 29.04 31.1253Z" fill="#D10F46"/>
<path d="M26.041 24.2825L24.5397 25.7838L13.0186 14.2614L13.6686 13.6115L14.5198 12.761L26.041 24.2825Z" fill="#E6E6E6"/>
<path d="M13.0186 14.2618L13.6684 13.6117L25.19 25.1333L24.5401 25.7834L13.0186 14.2618Z" fill="#CCCCCC"/>
<path d="M28.4016 22.6456C28.6114 22.8553 28.7164 23.1299 28.7164 23.4054C28.7164 23.6799 28.6114 23.9554 28.4016 24.1651L24.2373 28.3294C23.8174 28.7493 23.1372 28.7489 22.7178 28.3294C22.508 28.1197 22.4034 27.8448 22.4028 27.5696C22.4028 27.2951 22.5076 27.02 22.7178 26.8099L26.8821 22.6456C27.3018 22.2257 27.9822 22.2261 28.4016 22.6456Z" fill="#D10F46"/>
<path d="M28.4015 22.6456C28.6114 22.8553 28.7163 23.1299 28.7163 23.4054C28.7163 23.6799 28.6114 23.9554 28.4015 24.1651L25.7944 26.7724C25.3745 27.1924 24.6943 27.1918 24.2748 26.7724C24.0651 26.5625 23.9604 26.2876 23.96 26.0127C23.96 25.7379 24.0647 25.463 24.2748 25.2527L26.8821 22.6456C27.3018 22.2257 27.9822 22.2261 28.4015 22.6456Z" fill="#C30047"/>
<path d="M15.353 15.0963L15.6157 11.4386L11.0418 8.8248L9.08154 10.785L11.6954 15.3589L15.353 15.0963Z" fill="#E6E6E6"/>
</g>
<defs>
<clipPath id="clip0">
<rect width="26" height="26" fill="white" transform="translate(8 8)"/>
</clipPath>
</defs>
</svg>
