<svg width="42" height="42" viewBox="0 0 42 42" fill="none" xmlns="http://www.w3.org/2000/svg">
<rect width="42" height="42" rx="12" fill="#FEC7C4"/>
<path d="M24.1654 27.0854C24.1287 27.0855 24.0923 27.0799 24.0573 27.0689C24.0119 27.0547 23.9697 27.0318 23.9332 27.0013C23.8966 26.9709 23.8664 26.9335 23.8443 26.8914C23.8223 26.8493 23.8087 26.8032 23.8044 26.7558C23.8001 26.7084 23.8053 26.6607 23.8195 26.6153L24.1012 25.7128L22.0309 20.3072C21.9982 20.2178 22.0019 20.1191 22.0413 20.0325C22.0807 19.9459 22.1526 19.8783 22.2415 19.8442C22.3303 19.8102 22.429 19.8125 22.5162 19.8506C22.6034 19.8887 22.6721 19.9596 22.7075 20.0479L24.8229 25.571C24.8522 25.6471 24.8548 25.7309 24.8304 25.8087L24.5109 26.8312C24.488 26.9049 24.4421 26.9693 24.3799 27.015C24.3177 27.0608 24.2426 27.0854 24.1654 27.0854Z" fill="#979797"/>
<path d="M19.0471 16.0787L15.4472 12.3171C15.3613 12.2273 15.2505 12.1654 15.129 12.1393L9 10.8219L9.3915 9L15.7079 10.3575C16.0723 10.4359 16.4048 10.6217 16.6625 10.891L20.3933 14.7905L19.0471 16.0787Z" fill="#979797"/>
<path d="M27.5151 27.7305L29.7958 26.7417L32 31.8257L29.7193 32.8145L27.5151 27.7305Z" fill="#979797"/>
<path d="M31.397 28.2542L29.0265 21.7077C28.9292 21.4406 28.927 21.1482 29.0203 20.8796L29.395 19.7968C29.4886 19.5257 29.4855 19.2306 29.3862 18.9616C29.287 18.6925 29.0977 18.466 28.8505 18.3207L21.3434 13.9108C21.1067 13.771 20.8301 13.7137 20.5573 13.7482C20.2844 13.7827 20.0308 13.9069 19.8362 14.1013L18.1696 15.7659C18.0048 15.9314 17.8899 16.1399 17.8379 16.3676C17.7859 16.5953 17.799 16.833 17.8756 17.0536L22.509 30.3514C22.5515 30.4723 22.6195 30.5826 22.7084 30.6749C22.7973 30.7672 22.905 30.8392 23.0242 30.8862C23.1435 30.9331 23.2714 30.9538 23.3993 30.947C23.5273 30.9401 23.6522 30.9057 23.7657 30.8462L27.0555 29.1133L27.4385 29.9932C27.4857 30.1026 27.5545 30.2014 27.6406 30.2837C27.7268 30.366 27.8286 30.4301 27.9401 30.4722C28.0516 30.5143 28.1704 30.5336 28.2894 30.5288C28.4085 30.5241 28.5254 30.4954 28.6331 30.4446L30.9374 29.3639C31.1389 29.2699 31.2979 29.1038 31.383 28.8984C31.4681 28.693 31.4731 28.4631 31.397 28.2542ZM23.5484 29.5564L21.1157 22.5752C21.0274 22.3231 21.0178 22.0501 21.088 21.7923C21.1582 21.5346 21.3049 21.3042 21.5089 21.1317C21.7128 20.9591 21.9644 20.8526 22.2302 20.826C22.496 20.7995 22.7636 20.8543 22.9976 20.9831L23.7927 21.422C24.077 21.5775 24.2938 21.8327 24.4013 22.1384L26.48 28.014L23.5484 29.5564Z" fill="#4B8DFF"/>
<path d="M23.4661 16.9605C23.4017 16.9605 23.3384 16.9433 23.2829 16.9106L22.1856 16.2661C22.1027 16.2174 22.0426 16.1377 22.0185 16.0447C21.9943 15.9517 22.0081 15.8529 22.0568 15.77C22.1055 15.6872 22.1851 15.627 22.2782 15.6029C22.3712 15.5787 22.47 15.5925 22.5529 15.6412L23.6501 16.2857C23.7188 16.326 23.7722 16.3878 23.8022 16.4615C23.8322 16.5352 23.8371 16.6167 23.8162 16.6935C23.7953 16.7703 23.7496 16.838 23.6863 16.8863C23.6231 16.9345 23.5457 16.9606 23.4661 16.9605Z" fill="#4BC0FF"/>
</svg>
