<svg width="42" height="42" viewBox="0 0 42 42" fill="none" xmlns="http://www.w3.org/2000/svg">
<rect width="42" height="42" rx="12" fill="#FEC7C4"/>
<path d="M28.933 18.085C28.933 22.9967 20.4997 31.425 20.4997 31.425C20.4997 31.425 12.0664 22.9967 12.0664 18.085C12.0664 13.1733 15.8422 9.19168 20.4997 9.19168C25.1572 9.19168 28.933 13.1733 28.933 18.085Z" fill="#1081E0"/>
<path d="M20.5001 24.1417C24.0991 24.1417 27.0168 21.2241 27.0168 17.625C27.0168 14.0259 24.0991 11.1083 20.5001 11.1083C16.901 11.1083 13.9834 14.0259 13.9834 17.625C13.9834 21.2241 16.901 24.1417 20.5001 24.1417Z" fill="white"/>
<path d="M31.6168 31.8083H30.0835C29.8719 31.8083 29.7002 31.6366 29.7002 31.425C29.7002 31.2134 29.8719 31.0417 30.0835 31.0417H31.6168C31.8284 31.0417 32.0002 31.2134 32.0002 31.425C32.0002 31.6366 31.8284 31.8083 31.6168 31.8083Z" fill="#7383BF"/>
<path d="M18.2 31.8083H9.38332C9.17174 31.8083 9 31.6366 9 31.425C9 31.2134 9.17174 31.0417 9.38332 31.0417H18.2C18.4116 31.0417 18.5833 31.2134 18.5833 31.425C18.5833 31.6366 18.4116 31.8083 18.2 31.8083Z" fill="#7383BF"/>
<path d="M27.3998 31.8083H22.7998C22.5882 31.8083 22.4165 31.6366 22.4165 31.425C22.4165 31.2134 22.5882 31.0417 22.7998 31.0417H27.3998C27.6114 31.0417 27.7831 31.2134 27.7831 31.425C27.7831 31.6366 27.6114 31.8083 27.3998 31.8083Z" fill="#7383BF"/>
<path d="M21.2669 13.7917H18.9669H18.2002V21.4584H19.7335V18.3917H21.2668C22.5368 18.3917 23.5668 17.362 23.5668 16.0917C23.5668 14.8213 22.5369 13.7917 21.2669 13.7917ZM21.2669 16.8583H19.7336V15.325H21.2669C21.6901 15.325 22.0336 15.6681 22.0336 16.0917C22.0335 16.5152 21.69 16.8583 21.2669 16.8583Z" fill="#1081E0"/>
<path d="M20.5 31.425C20.5 31.425 20.6407 31.2839 20.8833 31.0313V27.975C20.8833 27.7634 20.7116 27.5917 20.5 27.5917C20.2884 27.5917 20.1167 27.7634 20.1167 27.975V31.0313C20.3593 31.2839 20.5 31.425 20.5 31.425Z" fill="#1F436D"/>
</svg>
