<svg width="42" height="42" viewBox="0 0 42 42" fill="none" xmlns="http://www.w3.org/2000/svg">
<rect width="42" height="42" rx="12" fill="#FEC7C4"/>
<path d="M9.21875 18.1562V19.7812H10.8438V18.1562C10.8438 16.2169 11.6142 14.3569 12.9855 12.9855C14.3569 11.6142 16.2169 10.8438 18.1562 10.8438C20.0956 10.8438 21.9556 11.6142 23.327 12.9855C24.6983 14.3569 25.4688 16.2169 25.4688 18.1562V19.7812H27.0938V18.1562C27.0938 15.7859 26.1521 13.5126 24.476 11.8365C22.7999 10.1604 20.5266 9.21875 18.1562 9.21875C15.7859 9.21875 13.5126 10.1604 11.8365 11.8365C10.1604 13.5126 9.21875 15.7859 9.21875 18.1562Z" fill="#85CCD5"/>
<path d="M24.25 20.5938H18.5625V16.5312L20.1875 14.9062H22.625L24.25 16.5312V20.5938Z" fill="#FFB431"/>
<path d="M20.1875 12.4688H22.625V14.9062H20.1875V12.4688Z" fill="#D65246"/>
<path d="M21 16.5312H24.25V17.3438H21V16.5312Z" fill="#FFC261"/>
<path d="M12.7067 14.6683L15.7188 11.6562L17.75 13.6875L16.9375 14.5L18.3245 15.887C18.4769 16.0394 18.5625 16.2461 18.5625 16.4615V24.6562C18.5625 24.8717 18.4769 25.0784 18.3245 25.2308C18.1722 25.3831 17.9655 25.4688 17.75 25.4688H13.2812C13.0658 25.4688 12.8591 25.3831 12.7067 25.2308C12.5544 25.0784 12.4688 24.8717 12.4688 24.6562V15.2428C12.4688 15.0273 12.5544 14.8207 12.7067 14.6683Z" fill="#8851A0"/>
<path d="M15.7188 11.6562L16.9375 10.4375H18.1562L18.9688 11.25V12.4688L17.75 13.6875L15.7188 11.6562Z" fill="#D65246"/>
<path d="M25.4688 18.1562V19.7812L23.8438 32.7812H12.4688L10.8438 19.7812V18.1562H25.4688Z" fill="#348ED8"/>
<path d="M25.4688 19.375V19.7812L25.418 20.1875H12.0625V19.375H25.4688Z" fill="#2C86D1"/>
<path d="M18.5625 28.7188V32.7812H12.4688L11.9609 28.7188H18.5625Z" fill="#2C86D1"/>
<path d="M31.1562 19.7812H25.4688C25.4688 19.1348 25.7256 18.5148 26.1827 18.0577C26.6398 17.6006 27.2598 17.3438 27.9062 17.3438H31.1562V19.7812Z" fill="#D65246"/>
<path d="M31.1562 17.75H32.7812V19.375H31.1562V17.75Z" fill="#C94C41"/>
<path d="M27.0938 19.7812H29.125V21.4062H27.0938V19.7812Z" fill="#C94C41"/>
<path d="M29.125 21.4062H27.0938C27.0937 23.2413 26.4373 25.0158 25.2431 26.4091L24.6562 27.0938V31.9688C24.6562 32.1842 24.7419 32.3909 24.8942 32.5433C25.0466 32.6956 25.2533 32.7812 25.4688 32.7812H30.75C30.9655 32.7812 31.1722 32.6956 31.3245 32.5433C31.4769 32.3909 31.5625 32.1842 31.5625 31.9688V27.0938L30.9757 26.4091C29.7814 25.0158 29.125 23.2413 29.125 21.4062Z" fill="#FFB431"/>
<path d="M26.2812 27.0938H31.5625V27.9062H26.2812V27.0938Z" fill="#FFC261"/>
<path d="M14.1207 23.8168L16.5313 21.4062V18.1562H23.0313V27.5C23.0313 27.7155 22.9457 27.9222 22.7933 28.0745C22.6409 28.2269 22.4343 28.3125 22.2188 28.3125C22.0033 28.3125 21.7966 28.2269 21.6442 28.0745C21.4919 27.9222 21.4063 27.7155 21.4063 27.5C21.4063 27.7155 21.3207 27.9222 21.1683 28.0745C21.0159 28.2269 20.8093 28.3125 20.5938 28.3125C20.3783 28.3125 20.1716 28.2269 20.0192 28.0745C19.8669 27.9222 19.7813 27.7155 19.7813 27.5C19.7813 27.7155 19.6957 27.9222 19.5433 28.0745C19.3909 28.2269 19.1843 28.3125 18.9688 28.3125C18.7533 28.3125 18.5466 28.2269 18.3942 28.0745C18.2419 27.9222 18.1563 27.7155 18.1563 27.5C18.1563 27.7155 18.0707 27.9222 17.9183 28.0745C17.7659 28.2269 17.5593 28.3125 17.3438 28.3125C17.1283 28.3125 16.9216 28.2269 16.7692 28.0745C16.6169 27.9222 16.5313 27.7155 16.5313 27.5V23.6914L15.1413 24.9076C15.0612 24.9777 14.9671 25.0298 14.8653 25.0606C14.7635 25.0914 14.6563 25.1 14.5508 25.086C14.4454 25.072 14.3441 25.0357 14.2538 24.9794C14.1636 24.9232 14.0864 24.8483 14.0273 24.7597C13.9315 24.616 13.8885 24.4435 13.9055 24.2716C13.9225 24.0997 13.9986 23.9389 14.1207 23.8168Z" fill="#4DB6E4"/>
<path d="M21 24.25H21.8125V27.5H21V24.25Z" fill="#3BA5D3"/>
<path d="M19.375 24.25H20.1875V27.5H19.375V24.25Z" fill="#3BA5D3"/>
<path d="M17.75 24.25H18.5625V27.5H17.75V24.25Z" fill="#3BA5D3"/>
<path d="M9.21875 29.5312H17.75V32.7812H9.21875V29.5312Z" fill="#FFB431"/>
<path d="M9.21875 27.9062H17.75V29.5312H9.21875V27.9062Z" fill="#5F9448"/>
<path d="M10.4375 30.75H11.25V31.5625H10.4375V30.75Z" fill="#F9A40F"/>
<path d="M12.0625 30.3438H12.875V31.1562H12.0625V30.3438Z" fill="#F9A40F"/>
<path d="M15.7188 30.75H16.5312V31.5625H15.7188V30.75Z" fill="#F9A40F"/>
</svg>
