<svg width="24" height="24" viewBox="0 0 24 24" fill="none" xmlns="http://www.w3.org/2000/svg">
<path d="M14.0852 11.9207L10.9162 11.9176C10.388 11.9171 9.85945 12.3417 9.85883 12.9795L9.85198 19.9948L15.1337 20L15.1405 12.9847C15.1411 12.3469 14.719 11.9214 14.0852 11.9207Z" stroke="#EA162C" stroke-width="1.5" stroke-miterlimit="10"/>
<path d="M17.993 19.997H7.11268C5.9507 19.997 5 19.0404 5 17.8712V10.4307C5 9.79294 5.3169 9.15519 5.84507 8.73002L11.2324 4.47832C11.9718 3.84056 13.0282 3.84056 13.7676 4.47832L19.1549 8.73002C19.6831 9.15519 20 9.68665 20 10.4307V17.8712C20 19.0404 19.1549 19.997 17.993 19.997Z" stroke="#EA162C" stroke-width="1.5" stroke-miterlimit="10"/>
</svg>
