<svg width="22" height="25" viewBox="0 0 22 25" fill="none" xmlns="http://www.w3.org/2000/svg">
<path d="M0.00369641 3.3063C-0.0498535 7.05987 0.478283 10.715 1.59774 13.7891C3.32955 18.9954 7.63041 23.2911 10.5567 24.4392L11.9847 11.0062L10.5567 0L0.00369641 3.3063Z" fill="#E9E9E9"/>
<path d="M10.5566 0V24.4392C13.5001 23.2825 17.7906 18.977 19.5156 13.789C20.635 10.7157 21.1635 7.05895 21.1097 3.30635L10.5566 0Z" fill="white"/>
<path d="M2.92562 5.76647C2.67759 12.3503 6.46138 18.1061 10.5569 20.9168L11.8064 10.9049L10.5569 3.37549L2.92562 5.76647Z" fill="#EA162C"/>
<path d="M10.5566 3.37552V20.9168C14.6623 18.0972 18.4347 12.3439 18.1879 5.76645L10.5566 3.37552Z" fill="#EA162C"/>
<path d="M16.4518 9.32813C16.3304 9.68113 16.1287 10.0128 15.847 10.2945C15.5528 10.5887 15.2043 10.7954 14.8338 10.9146C14.2709 11.0958 13.757 11.4025 13.3391 11.8206L7.42819 17.7314C6.83489 17.3577 6.30739 16.8889 5.86768 16.3463L10.4744 11.7397C11.2518 10.9623 11.6542 9.87588 11.5324 8.7835C11.4439 7.99234 11.7271 7.1678 12.3816 6.59222C12.5225 6.46833 12.6742 6.36283 12.8338 6.27592C13.0879 6.13742 13.361 6.04555 13.6409 6L13.4759 6.52848L13.1674 7.5172C13.1327 7.62835 13.1164 7.74086 13.1164 7.85122C13.1164 8.32919 13.424 8.77202 13.9041 8.9217C14.4954 9.10633 15.1243 8.77649 15.3086 8.18524L15.4011 7.88947L15.7876 6.65033C16.544 7.36051 16.7655 8.4159 16.4518 9.32813Z" fill="white"/>
<path d="M16.515 15.2115C15.9089 16.4064 14.9376 17.3851 13.7479 18C12.7505 16.609 12.4396 15.2023 13.0848 14.5573C13.7278 13.9142 15.1281 14.2214 16.515 15.2115Z" fill="white"/>
<path d="M14.7923 17.3234C14.4685 17.5814 14.1188 17.8084 13.7479 18H13.7476C12.7505 16.609 12.4396 15.2024 13.0848 14.5573C12.8318 14.8104 13.5667 15.9714 14.7923 17.3234Z" fill="white"/>
<path d="M13.3214 13.966L12.5849 14.7026L6.93213 9.04928L7.25106 8.73044L7.66869 8.31311L13.3214 13.966Z" fill="#FFFCFC"/>
<path d="M6.93213 9.04949L7.25097 8.73056L12.9039 14.3835L12.5851 14.7024L6.93213 9.04949Z" fill="#CCCCCC"/>
<path d="M14.4784 13.163C14.5813 13.2658 14.6328 13.4005 14.6328 13.5357C14.6328 13.6704 14.5813 13.8056 14.4784 13.9085L12.4352 15.9516C12.2292 16.1577 11.8955 16.1575 11.6897 15.9516C11.5867 15.8488 11.5354 15.7139 11.5352 15.5789C11.5352 15.4442 11.5865 15.3092 11.6897 15.2061L13.7329 13.163C13.9388 12.9569 14.2726 12.9571 14.4784 13.163Z" fill="white"/>
<path d="M14.4795 13.163C14.5825 13.2658 14.634 13.4005 14.634 13.5357C14.634 13.6704 14.5825 13.8056 14.4795 13.9085L13.2004 15.1877C12.9943 15.3938 12.6606 15.3935 12.4547 15.1877C12.3519 15.0848 12.3005 14.9499 12.3003 14.815C12.3003 14.6802 12.3517 14.5453 12.4547 14.4421L13.734 13.163C13.9399 12.9569 14.2738 12.9571 14.4795 13.163Z" fill="white"/>
<path d="M8.07703 9.45896L8.20589 7.66438L5.96177 6.38193L5 7.34369L6.28245 9.58782L8.07703 9.45896Z" fill="#FFFCFC"/>
<path d="M14.3569 14.5446L16.4718 17.7552L17.1645 15.5888L16.4718 13.4709C15.7025 13.519 14.9455 13.8761 14.3569 14.5446Z" fill="white"/>
<path d="M14.5587 19.119L11.8687 22.1742L14.3567 25L16.4716 22.5981L14.5587 19.119Z" fill="#E9E9E9"/>
<path d="M18.9548 14.5502C18.2724 13.7751 17.3637 13.4151 16.4717 13.4709V17.7551L18.2966 20.5255L18.9548 19.7779C20.2259 18.3343 20.2259 15.9937 18.9548 14.5502Z" fill="white"/>
<path d="M14.3568 14.5446C12.9826 16.1052 12.9826 18.6355 14.3568 20.1962L16.4716 22.5981L17.3895 20.189L16.4716 16.9465L14.3568 14.5446Z" fill="#E9E9E9"/>
<path d="M21.0747 22.1742L16.4717 16.9465V22.5981L18.5865 25L21.0747 22.1742Z" fill="white"/>
</svg>
