<svg width="26" height="26" viewBox="0 0 26 26" fill="none" xmlns="http://www.w3.org/2000/svg">
<path d="M24.4217 6.82968C24.1744 7.54915 23.7632 8.22517 23.1891 8.79924C22.5894 9.3989 21.8791 9.82022 21.1239 10.0632C19.9768 10.4326 18.9294 11.0576 18.0776 11.9098L6.03018 23.9568C4.82095 23.1953 3.74582 22.2398 2.84961 21.1339L12.2388 11.7448C13.8233 10.1604 14.6436 7.94608 14.3952 5.71964C14.2149 4.10713 14.7921 2.42659 16.1261 1.25346C16.4132 1.00095 16.7224 0.785919 17.0477 0.60878C17.5657 0.326508 18.1223 0.139252 18.6928 0.0464172L18.3563 1.12354L17.7275 3.13872C17.6569 3.36525 17.6236 3.59456 17.6236 3.8195C17.6236 4.79367 18.2506 5.69623 19.2291 6.00131C20.4342 6.37761 21.716 5.70535 22.0917 4.50029L22.2802 3.89746L23.0681 1.37189C24.6096 2.81935 25.0611 4.97041 24.4217 6.82968Z" fill="white"/>
<path d="M24.5512 18.821C23.3158 21.2565 21.3362 23.2511 18.9113 24.5043C16.8785 21.6693 16.2449 18.8023 17.5599 17.4876C18.8705 16.177 21.7246 16.803 24.5512 18.821Z" fill="white"/>
<path d="M21.04 23.1253C20.3801 23.6512 19.6673 24.1137 18.9114 24.5043H18.9108C16.8785 21.6693 16.245 18.8023 17.5599 17.4876C17.0442 18.0033 18.542 20.3698 21.04 23.1253Z" fill="white"/>
<path d="M18.041 16.2825L16.5397 17.7838L5.01855 6.26138L5.66859 5.61154L6.51978 4.76096L18.041 16.2825Z" fill="white"/>
<path d="M5.01855 6.26176L5.6684 5.61172L17.19 17.1333L16.5401 17.7834L5.01855 6.26176Z" fill="#CCCCCC"/>
<path d="M20.4016 14.6456C20.6114 14.8553 20.7164 15.1299 20.7164 15.4054C20.7164 15.6799 20.6114 15.9554 20.4016 16.1651L16.2373 20.3294C15.8174 20.7493 15.1372 20.7489 14.7178 20.3294C14.508 20.1197 14.4034 19.8448 14.4028 19.5696C14.4028 19.2951 14.5076 19.02 14.7178 18.8099L18.8821 14.6456C19.3018 14.2257 19.9822 14.2261 20.4016 14.6456Z" fill="white"/>
<path d="M20.4015 14.6456C20.6114 14.8553 20.7163 15.1299 20.7163 15.4054C20.7163 15.6799 20.6114 15.9554 20.4015 16.1651L17.7944 18.7724C17.3745 19.1924 16.6943 19.1918 16.2748 18.7724C16.0651 18.5625 15.9604 18.2876 15.96 18.0127C15.96 17.7379 16.0647 17.463 16.2748 17.2527L18.8821 14.6456C19.3018 14.2257 19.9822 14.2261 20.4015 14.6456Z" fill="white"/>
<path d="M7.35303 7.09628L7.61566 3.43864L3.04178 0.824799L1.08154 2.78503L3.69539 7.35892L7.35303 7.09628Z" fill="white"/>
</svg>
