<svg width="23" height="24" viewBox="0 0 23 24" fill="none" xmlns="http://www.w3.org/2000/svg">
<path d="M15.1654 18.0855C15.1287 18.0855 15.0923 18.0799 15.0573 18.0689C15.0119 18.0548 14.9697 18.0318 14.9332 18.0014C14.8966 17.9709 14.8664 17.9335 14.8443 17.8914C14.8223 17.8493 14.8087 17.8032 14.8044 17.7558C14.8001 17.7084 14.8053 17.6607 14.8195 17.6153L15.1012 16.7128L13.0309 11.3072C12.9982 11.2178 13.0019 11.1192 13.0413 11.0325C13.0807 10.9459 13.1526 10.8783 13.2415 10.8442C13.3303 10.8102 13.429 10.8125 13.5162 10.8506C13.6034 10.8887 13.6721 10.9596 13.7075 11.048L15.8229 16.571C15.8522 16.6471 15.8548 16.7309 15.8304 16.8087L15.5109 17.8312C15.488 17.9049 15.4421 17.9693 15.3799 18.0151C15.3177 18.0608 15.2426 18.0855 15.1654 18.0855Z" fill="white"/>
<path d="M10.0471 7.0787L6.44724 3.3171C6.36135 3.22732 6.2505 3.16537 6.12903 3.13925L0 1.8219L0.391501 0L6.7079 1.35752C7.07231 1.43588 7.40485 1.62172 7.66253 1.89105L11.3933 5.79053L10.0471 7.0787Z" fill="white"/>
<path d="M18.5151 18.7305L20.7958 17.7417L23 22.8257L20.7193 23.8145L18.5151 18.7305Z" fill="white"/>
<path d="M22.397 19.2542L20.0265 12.7077C19.9292 12.4406 19.927 12.1482 20.0203 11.8796L20.395 10.7968C20.4886 10.5257 20.4855 10.2306 20.3862 9.96155C20.287 9.69248 20.0977 9.46604 19.8505 9.32067L12.3434 4.91084C12.1067 4.77095 11.8301 4.71374 11.5573 4.74822C11.2844 4.7827 11.0308 4.90691 10.8362 5.10132L9.16961 6.76587C9.00482 6.93137 8.88987 7.13987 8.83789 7.36757C8.7859 7.59527 8.79898 7.833 8.87562 8.05362L13.509 21.3514C13.5515 21.4723 13.6195 21.5826 13.7084 21.6749C13.7973 21.7672 13.905 21.8392 14.0242 21.8862C14.1435 21.9331 14.2714 21.9538 14.3993 21.9469C14.5273 21.9401 14.6522 21.9057 14.7657 21.8462L18.0555 20.1133L18.4385 20.9932C18.4857 21.1026 18.5545 21.2014 18.6406 21.2837C18.7268 21.366 18.8286 21.4301 18.9401 21.4722C19.0516 21.5143 19.1704 21.5336 19.2894 21.5288C19.4085 21.5241 19.5254 21.4954 19.6331 21.4446L21.9374 20.3639C22.1389 20.2699 22.2979 20.1038 22.383 19.8984C22.4681 19.693 22.4731 19.4631 22.397 19.2542ZM14.5484 20.5564L12.1157 13.5752C12.0274 13.3231 12.0178 13.0501 12.088 12.7923C12.1582 12.5346 12.3049 12.3042 12.5089 12.1317C12.7128 11.9591 12.9644 11.8526 13.2302 11.826C13.496 11.7995 13.7636 11.8543 13.9976 11.9831L14.7927 12.422C15.077 12.5775 15.2938 12.8327 15.4013 13.1384L17.48 19.014L14.5484 20.5564Z" fill="white"/>
<path d="M14.4661 7.96044C14.4017 7.9605 14.3384 7.94327 14.2829 7.91055L13.1856 7.26605C13.1027 7.21735 13.0426 7.13772 13.0185 7.0447C12.9943 6.95167 13.0081 6.85286 13.0568 6.77C13.1055 6.68714 13.1851 6.62703 13.2782 6.60288C13.3712 6.57873 13.47 6.59252 13.5529 6.64122L14.6501 7.28572C14.7188 7.32602 14.7722 7.38779 14.8022 7.46148C14.8322 7.53518 14.8371 7.61671 14.8162 7.69348C14.7953 7.77025 14.7496 7.83799 14.6863 7.88624C14.6231 7.93449 14.5457 7.96057 14.4661 7.96044Z" fill="#EA162C"/>
</svg>
