<svg width="23" height="23" viewBox="0 0 23 23" fill="none" xmlns="http://www.w3.org/2000/svg">
<path d="M19.933 9.085C19.933 13.9967 11.4997 22.425 11.4997 22.425C11.4997 22.425 3.06641 13.9967 3.06641 9.085C3.06641 4.17333 6.84223 0.191681 11.4997 0.191681C16.1572 0.191681 19.933 4.17333 19.933 9.085Z" fill="white"/>
<path d="M11.5001 15.1417C15.0991 15.1417 18.0168 12.2241 18.0168 8.62499C18.0168 5.02592 15.0991 2.10831 11.5001 2.10831C7.90102 2.10831 4.9834 5.02592 4.9834 8.62499C4.9834 12.2241 7.90102 15.1417 11.5001 15.1417Z" fill="#EA162C"/>
<path d="M22.6168 22.8083H21.0835C20.8719 22.8083 20.7002 22.6366 20.7002 22.425C20.7002 22.2134 20.8719 22.0417 21.0835 22.0417H22.6168C22.8284 22.0417 23.0002 22.2134 23.0002 22.425C23.0002 22.6366 22.8284 22.8083 22.6168 22.8083Z" fill="#F4F6FF"/>
<path d="M9.2 22.8083H0.383318C0.171736 22.8083 0 22.6366 0 22.425C0 22.2134 0.171736 22.0417 0.383318 22.0417H9.2C9.41158 22.0417 9.58332 22.2134 9.58332 22.425C9.58332 22.6366 9.41158 22.8083 9.2 22.8083Z" fill="#F4F6FF"/>
<path d="M18.3998 22.8083H13.7998C13.5882 22.8083 13.4165 22.6366 13.4165 22.425C13.4165 22.2134 13.5882 22.0417 13.7998 22.0417H18.3998C18.6114 22.0417 18.7831 22.2134 18.7831 22.425C18.7831 22.6366 18.6114 22.8083 18.3998 22.8083Z" fill="#F4F6FF"/>
<path d="M12.2669 4.79169H9.96688H9.2002V12.4584H10.7335V9.39169H12.2668C13.5368 9.39169 14.5668 8.36203 14.5668 7.09169C14.5668 5.82134 13.5369 4.79169 12.2669 4.79169ZM12.2669 7.85832H10.7336V6.32501H12.2669C12.6901 6.32501 13.0336 6.66807 13.0336 7.09169C13.0335 7.51526 12.69 7.85832 12.2669 7.85832Z" fill="white"/>
<path d="M11.5 22.425C11.5 22.425 11.6407 22.2839 11.8833 22.0313V18.975C11.8833 18.7634 11.7116 18.5917 11.5 18.5917C11.2884 18.5917 11.1167 18.7634 11.1167 18.975V22.0313C11.3593 22.2839 11.5 22.425 11.5 22.425Z" fill="white"/>
</svg>
