<svg width="26" height="26" viewBox="0 0 26 26" fill="none" xmlns="http://www.w3.org/2000/svg">
<path d="M1.21875 10.1562V11.7812H2.84375V10.1562C2.84375 8.21685 3.61417 6.35689 4.98553 4.98553C6.35689 3.61417 8.21685 2.84375 10.1562 2.84375C12.0956 2.84375 13.9556 3.61417 15.327 4.98553C16.6983 6.35689 17.4688 8.21685 17.4688 10.1562V11.7812H19.0938V10.1562C19.0938 7.78588 18.1521 5.51259 16.476 3.83648C14.7999 2.16038 12.5266 1.21875 10.1562 1.21875C7.78588 1.21875 5.51259 2.16038 3.83648 3.83648C2.16038 5.51259 1.21875 7.78588 1.21875 10.1562Z" fill="white"/>
<path d="M16.25 12.5938H10.5625V8.53125L12.1875 6.90625H14.625L16.25 8.53125V12.5938Z" fill="white"/>
<path d="M12.1875 4.46875H14.625V6.90625H12.1875V4.46875Z" fill="#B9B9B9"/>
<path d="M13 8.53125H16.25V9.34375H13V8.53125Z" fill="#E2E2E2"/>
<path d="M4.70671 6.66829L7.71875 3.65625L9.75 5.6875L8.9375 6.5L10.3245 7.88704C10.4769 8.03941 10.5625 8.24605 10.5625 8.46153V16.6562C10.5625 16.8717 10.4769 17.0784 10.3245 17.2308C10.1722 17.3831 9.96549 17.4688 9.75 17.4688H5.28125C5.06576 17.4688 4.8591 17.3831 4.70673 17.2308C4.55435 17.0784 4.46875 16.8717 4.46875 16.6562V7.24278C4.46876 7.0273 4.55435 6.82066 4.70671 6.66829Z" fill="#FEFBFF"/>
<path d="M7.71875 3.65625L8.9375 2.4375H10.1562L10.9688 3.25V4.46875L9.75 5.6875L7.71875 3.65625Z" fill="#B9B9B9"/>
<path d="M17.4688 10.1562V11.7812L15.8438 24.7812H4.46875L2.84375 11.7812V10.1562H17.4688Z" fill="white"/>
<path d="M17.4688 11.375V11.7812L17.418 12.1875H4.0625V11.375H17.4688Z" fill="#EA162C"/>
<path d="M10.5625 20.7188V24.7812H4.46875L3.96094 20.7188H10.5625Z" fill="#EA162C"/>
<path d="M23.1562 11.7812H17.4688C17.4688 11.1348 17.7256 10.5148 18.1827 10.0577C18.6398 9.60056 19.2598 9.34375 19.9062 9.34375H23.1562V11.7812Z" fill="white"/>
<path d="M23.1562 9.75H24.7812V11.375H23.1562V9.75Z" fill="white"/>
<path d="M19.0938 11.7812H21.125V13.4062H19.0938V11.7812Z" fill="white"/>
<path d="M21.125 13.4062H19.0938C19.0937 15.2413 18.4373 17.0158 17.2431 18.4091L16.6562 19.0938V23.9688C16.6562 24.1842 16.7419 24.3909 16.8942 24.5433C17.0466 24.6956 17.2533 24.7812 17.4688 24.7812H22.75C22.9655 24.7812 23.1722 24.6956 23.3245 24.5433C23.4769 24.3909 23.5625 24.1842 23.5625 23.9688V19.0938L22.9757 18.4091C21.7814 17.0158 21.125 15.2413 21.125 13.4062Z" fill="white"/>
<path d="M18.2812 19.0938H23.5625V19.9062H18.2812V19.0938Z" fill="white"/>
<path d="M13 16.25H13.8125V19.5H13V16.25Z" fill="white"/>
<path d="M11.375 16.25H12.1875V19.5H11.375V16.25Z" fill="white"/>
<path d="M9.75 16.25H10.5625V19.5H9.75V16.25Z" fill="white"/>
<path d="M1.21875 21.5312H9.75V24.7812H1.21875V21.5312Z" fill="white"/>
<path d="M1.21875 19.9062H9.75V21.5312H1.21875V19.9062Z" fill="#B9B9B9"/>
<path d="M2.4375 22.75H3.25V23.5625H2.4375V22.75Z" fill="#E2E2E2"/>
<path d="M4.0625 22.3438H4.875V23.1562H4.0625V22.3438Z" fill="#E2E2E2"/>
<path d="M7.71875 22.75H8.53125V23.5625H7.71875V22.75Z" fill="#E2E2E2"/>
</svg>
